HIERARCHY
ROOT Hips
{
	OFFSET 0.00000 0.00000 0.00000
	CHANNELS 6 Xposition Yposition Zposition Yrotation Zrotation Xrotation 
	JOINT Lumbar
	{
		OFFSET 0 0 0
		CHANNELS 3 Zrotation Xrotation Yrotation
		JOINT Neck
		{
			OFFSET 0.00 0.2701 0.00
			CHANNELS 3 Zrotation Xrotation Yrotation
			End Site
			{
				OFFSET 0.00 0.1379 0.00
			}
		}
		JOINT RightShoulder
		{
			OFFSET 0.0119 0.2289 0.1181
			CHANNELS 3 Zrotation Xrotation Yrotation
			JOINT RightElbow
			{
				OFFSET 0.00 -0.1475 0.00
				CHANNELS 2 Zrotation Yrotation
				JOINT RightWrist
				{
					OFFSET 0.00 -0.1605 0.00
					CHANNELS 2 Zrotation Xrotation
					End Site
					{
						OFFSET 0.0040 -0.1068 0.0006
					}
				}
			}
		}
		JOINT LeftShoulder
		{
			OFFSET 0.0119 0.2289 -0.1181
			CHANNELS 3 Zrotation Xrotation Yrotation
			JOINT LeftElbow
			{
				OFFSET 0.00 -0.1475 0.00
				CHANNELS 2 Zrotation Yrotation
				JOINT LeftWrist
				{
					OFFSET 0.00 -0.1605 0.00
					CHANNELS 2 Zrotation Xrotation
					End Site
					{
						OFFSET 0.0040 -0.1068 -0.0006
					}
				}
			}
		}
	}
	JOINT RightHip
	{
		OFFSET 0.0316 -0.0424 0.0458
		CHANNELS 3 Zrotation Xrotation Yrotation
		JOINT RightKnee
		{
			OFFSET 0.00 -0.2438 0.00
			CHANNELS 1 Zrotation
			JOINT RightAnkle
			{
				OFFSET 0.00 -0.2449 0.00
				CHANNELS 3 Zrotation Xrotation Yrotation
				End Site
				{
					OFFSET 0.1237 -0.0542 0.0051
				}
			}
		}
	}
	JOINT LeftHip
	{
		OFFSET 0.0316 -0.0424 -0.0458
		CHANNELS 3 Zrotation Xrotation Yrotation
		JOINT LeftKnee
		{
			OFFSET 0.00 -0.2438 0.00
			CHANNELS 1 Zrotation
			JOINT LeftAnkle
			{
				OFFSET 0.00 -0.2449 0.00
				CHANNELS 3 Zrotation Xrotation Yrotation
				End Site
				{
					OFFSET 0.1237 -0.0542 -0.0051
				}
			}
		}
	}
}
MOTION
Frames: 30
Frame Time: 0.02
-0.00081 -0.00015 -0.00105 -81.50743 -28.98502 -1.76969 42.25188 -1.53795 -10.49104 -16.34792 5.63042 -1.26864 -23.33888 -3.69455 -30.02087 30.41701 143.22036 21.03999 10.15118 -24.19335 11.3419 10.84133 40.3027 -105.5367 14.42403 -2.34618 30.87232 -4.71905 -4.56355 -20.72382 -6.71155 -3.62604 -4.01099 33.8863 5.89833 3.91971 -25.67651 -6.72585 2.89668 3.62828
-0.00126 -0.00017 -0.00032 -81.70806 -28.97356 -1.80442 42.33802 -1.49845 -10.437 -16.3471 5.6773 -1.26928 -23.33831 -3.90183 -29.20492 30.53194 141.19501 20.59409 9.73521 -24.37459 11.25656 10.78737 40.28476 -105.53445 14.46218 -2.35707 30.77588 -4.73822 -5.05304 -20.69238 -6.6727 -3.57324 -3.98015 33.73861 6.03893 4.34828 -25.62975 -6.71527 2.8696 3.61674
-0.00172 -0.00019 0.00041 -81.90826 -28.96217 -1.83909 42.42396 -1.45905 -10.38315 -16.34627 5.72411 -1.26991 -23.33776 -4.10888 -28.38989 30.64656 139.16947 20.14763 9.31951 -24.55567 11.1714 10.73352 40.26679 -105.53237 14.50028 -2.36792 30.6797 -4.75726 -5.54116 -20.66102 -6.63395 -3.52056 -3.94939 33.5913 6.17919 4.77558 -25.58313 -6.70473 2.84262 3.60525
-0.00217 -0.00022 0.00114 -82.1083 -28.95075 -1.87372 42.50984 -1.41967 -10.32929 -16.34545 5.77086 -1.27055 -23.33721 -4.31563 -27.57607 30.76114 137.14876 19.70264 8.90456 -24.73642 11.08631 10.67971 40.2489 -105.53015 14.53832 -2.37878 30.58355 -4.77635 -6.02918 -20.62967 -6.59521 -3.46791 -3.91865 33.44406 6.31938 5.20285 -25.53652 -6.69419 2.81563 3.59374
-0.00263 -0.00024 0.00187 -82.3087 -28.93925 -1.90838 42.59591 -1.38018 -10.27522 -16.34466 5.81766 -1.27118 -23.33661 -4.52236 -26.76229 30.87603 135.13215 19.25935 8.48996 -24.91719 11.00106 10.62583 40.23106 -105.5277 14.57637 -2.38969 30.48715 -4.79562 -6.51848 -20.59826 -6.55639 -3.41514 -3.88782 33.29645 6.45985 5.63131 -25.48978 -6.68361 2.78854 3.5822
-0.00308 -0.00026 0.00259 -82.50846 -28.92807 -1.94305 42.68159 -1.34099 -10.22183 -16.34374 5.86447 -1.27181 -23.33615 -4.72998 -25.94487 30.99006 133.08889 18.80653 8.07213 -25.0989 10.91609 10.57204 40.21279 -105.52639 14.61456 -2.4004 30.39144 -4.81418 -7.00408 -20.56699 -6.5178 -3.36268 -3.85721 33.14978 6.59967 6.05612 -25.44339 -6.67314 2.7618 3.57081
-0.00353 -0.00028 0.00332 -82.70927 -28.91626 -1.97769 42.76794 -1.30124 -10.16715 -16.34308 5.91122 -1.27245 -23.33546 -4.93586 -25.13476 31.10568 131.09749 18.37223 7.66061 -25.27849 10.83067 10.5181 40.19546 -105.5228 14.65244 -2.41149 30.29445 -4.83412 -7.49664 -20.53546 -6.47878 -3.30964 -3.8262 33.00141 6.74068 6.48793 -25.39636 -6.66246 2.73438 3.55911
-0.00399 -0.00031 0.00405 -82.90914 -28.90504 -2.01233 42.85368 -1.262 -10.11364 -16.34219 5.95798 -1.27308 -23.3349 -5.14287 -24.31961 31.21988 129.06561 17.92297 7.24445 -25.46008 10.74562 10.46436 40.17718 -105.52127 14.69061 -2.42224 30.19865 -4.85281 -7.98271 -20.50418 -6.44015 -3.25714 -3.79556 32.85458 6.88051 6.91303 -25.34991 -6.65199 2.70761 3.54771
-0.00444 -0.00033 0.00478 -83.10787 -28.8945 -2.04708 42.93869 -1.22339 -10.06163 -16.34097 6.00499 -1.27372 -23.33484 -5.3533 -23.49092 31.33223 126.95308 17.44648 6.81757 -25.64409 10.66116 10.41057 40.15804 -105.52245 14.72914 -2.43255 30.10421 -4.86987 -8.46137 -20.47317 -6.40199 -3.20525 -3.76534 32.70966 7.01931 7.33114 -25.3042 -6.64171 2.6815 3.53661
-0.00489 -0.00035 0.00551 -83.31321 -28.87995 -2.08154 43.02794 -1.18118 -10.0012 -16.34152 6.05127 -1.27435 -23.33293 -5.55019 -22.71787 31.45486 125.21069 17.09973 6.43716 -25.81414 10.57373 10.35617 40.14474 -105.50864 14.76561 -2.44534 30.00168 -4.89601 -8.98426 -20.44049 -6.3611 -3.14971 -3.73261 32.55381 7.1653 7.79313 -25.25431 -6.63013 2.65122 3.52362
-0.00535 -0.00037 0.00622 -83.50455 -28.8739 -2.11636 43.10823 -1.14657 -9.95839 -16.33841 6.09864 -1.27498 -23.33426 -5.77166 -21.84192 31.55601 122.7482 16.49668 5.96856 -26.0136 10.49229 10.30367 40.11858 -105.52604 14.80641 -2.45292 29.91637 -4.90319 -9.41277 -20.41143 -6.32601 -3.10194 -3.70522 32.42102 7.29527 8.16017 -25.21317 -6.62142 2.62997 3.51473
-0.00584 -0.00041 0.00689 -83.65726 -28.89122 -2.15417 43.1636 -1.13306 -9.96557 -16.32447 6.15253 -1.27562 -23.35071 -6.09558 -20.55579 31.59683 117.76626 15.03355 5.17065 -26.29465 10.42987 10.25116 40.06112 -105.63318 14.85919 -2.44558 29.87762 -4.85618 -9.58823 -20.39158 -6.30674 -3.07521 -3.69229 32.35193 7.38802 8.2846 -25.19688 -6.61975 2.63174 3.51619
-0.00634 -0.00044 0.00753 -83.79576 -28.9171 -2.19189 43.20999 -1.12716 -9.99022 -16.30699 6.20668 -1.27624 -23.36978 -6.43872 -19.1864 31.61695 112.14666 13.33798 4.2978 -26.60482 10.37307 10.20137 39.99001 -105.77059 14.91613 -2.43306 29.85627 -4.79057 -9.66767 -20.37545 -6.29332 -3.05636 -3.68475 32.30594 7.46351 8.31099 -25.18919 -6.6211 2.64283 3.5219
-0.00683 -0.00047 0.00818 -83.9412 -28.93905 -2.22844 43.26071 -1.11762 -10.00569 -16.29167 6.25861 -1.27686 -23.38287 -6.74891 -17.94318 31.64671 107.19313 11.85636 3.51953 -26.90141 10.31187 10.15392 39.92253 -105.8919 14.97134 -2.42337 29.82745 -4.7348 -9.78731 -20.35811 -6.27726 -3.03403 -3.67482 32.24903 7.54244 8.36976 -25.17703 -6.62169 2.6509 3.52632
-0.00734 -0.00051 0.00884 -84.08544 -28.96116 -2.2704 43.31047 -1.10882 -10.02609 -16.27408 6.32012 -1.27751 -23.41397 -7.15716 -16.34174 31.67301 100.71251 9.93386 2.49612 -27.20057 10.2581 10.09199 39.86589 -106.0245 15.02661 -2.41185 29.79691 -4.67293 -9.92179 -20.33889 -6.26105 -3.01111 -3.6646 32.19379 7.63967 8.47717 -25.16736 -6.61985 2.65414 3.52824
-0.00781 -0.00054 0.00948 -84.2277 -28.98501 -2.3007 43.35996 -1.10034 -10.04077 -16.26031 6.36084 -1.27811 -23.41098 -7.37099 -15.44804 31.70467 97.18278 8.8534 1.95233 -27.49996 10.19064 10.0601 39.78346 -106.1391 15.0818 -2.40264 29.77396 -4.6196 -10.00195 -20.32431 -6.24666 -2.9915 -3.65635 32.14074 7.69501 8.46323 -25.15444 -6.62361 2.66927 3.53614
-0.00821 -0.00058 0.01007 -84.37708 -29.01108 -2.30187 43.4121 -1.09043 -10.03197 -16.25841 6.3518 -1.27855 -23.28891 -6.99691 -16.69231 31.73241 102.64982 10.34113 2.86756 -27.80403 10.08108 10.11453 39.63374 -106.20524 15.14128 -2.40243 29.76857 -4.59259 -9.96222 -20.32296 -6.23474 -2.97736 -3.65137 32.08653 7.63612 8.11058 -25.13144 -6.64342 2.71829 3.56135
-0.00858 -0.0006 0.01064 -84.52294 -29.03874 -2.29073 43.4641 -1.0807 -10.01757 -16.26042 6.32037 -1.27896 -23.13678 -6.43449 -18.62317 31.77231 110.98914 12.65211 4.24798 -28.1053 9.95883 10.1966 39.45892 -106.24685 15.19784 -2.40379 29.77003 -4.57521 -9.87043 -20.32591 -6.22463 -2.96659 -3.64833 32.03414 7.53619 7.64401 -25.10474 -6.66851 2.77831 3.59206
-0.00895 -0.00063 0.0112 -84.66483 -29.06596 -2.28325 43.5153 -1.07116 -10.0078 -16.26026 6.29418 -1.27941 -23.01461 -5.98951 -20.13015 31.82021 117.54743 14.46101 5.33719 -28.40044 9.84337 10.26559 39.29459 -106.29873 15.25421 -2.4044 29.7678 -4.55459 -9.79751 -20.32599 -6.21443 -2.95548 -3.64498 31.98175 7.45688 7.24816 -25.07904 -6.69031 2.8311 3.61901
-0.00937 -0.00069 0.01181 -84.83103 -29.09213 -2.28397 43.56963 -1.06062 -9.98929 -16.26144 6.28895 -1.27973 -22.82456 -5.41344 -22.09848 31.80369 126.05232 16.79168 6.75415 -28.72756 9.72076 10.34403 39.13163 -106.37071 15.32394 -2.40777 29.76869 -4.52837 -9.7394 -20.33004 -6.20137 -2.93974 -3.63946 31.92614 7.36866 6.77033 -25.05633 -6.71596 2.89367 3.65145
-0.00968 -0.00067 0.01233 -84.94431 -29.12095 -2.26467 43.61779 -1.05225 -9.9881 -16.26105 6.2346 -1.28032 -22.76769 -5.06205 -23.28004 31.93277 131.24264 18.24702 7.60811 -28.98736 9.61372 10.40032 38.9626 -106.37535 15.35653 -2.40232 29.76437 -4.51651 -9.64192 -20.32684 -6.19457 -2.9342 -3.63878 31.87803 7.28946 6.43566 -25.02664 -6.73483 2.93833 3.67371
-0.00973 -0.0004 0.01256 -84.92661 -29.15496 -2.19298 43.64663 -1.04875 -10.03039 -16.25348 6.05121 -1.28165 -23.09457 -5.40679 -22.03358 32.39496 126.15053 16.97246 6.72292 -29.05922 9.51925 10.46872 38.7616 -106.37089 15.36283 -2.40351 29.74504 -4.5407 -9.42589 -20.30227 -6.20504 -2.95711 -3.65163 31.84447 7.24521 6.54042 -24.97662 -6.73348 2.93104 3.66654
-0.00967 -6e-05 0.0127 -84.85326 -29.19187 -2.10147 43.66977 -1.04757 -10.09128 -16.24469 5.81888 -1.28325 -23.5547 -5.97895 -19.98744 33.01876 117.70376 14.80951 5.26834 -29.0639 9.44623 10.50113 38.55975 -106.27192 15.31941 -2.39081 29.72 -4.57942 -9.17624 -20.27032 -6.22166 -2.98995 -3.66917 31.81933 7.2114 6.79074 -24.92 -6.72515 2.90523 3.64891
-0.00966 0.00025 0.01289 -84.796 -29.22854 -2.01923 43.69705 -1.04605 -10.14735 -16.23759 5.6083 -1.28472 -23.94839 -6.4269 -18.36646 33.60804 111.0796 13.12884 4.12156 -29.10089 9.38647 10.49467 38.37188 -106.09833 15.24709 -2.36282 29.69672 -4.61232 -8.95786 -20.2419 -6.23512 -3.01746 -3.68409 31.79396 7.17309 6.96418 -24.86769 -6.72015 2.88773 3.63605
-0.00966 0.00058 0.01305 -84.77713 -29.26069 -1.9359 43.71765 -1.04167 -10.18794 -16.22537 5.39929 -1.2862 -24.36666 -6.95454 -16.5127 34.02078 103.30816 11.14941 2.78521 -29.12991 9.23278 10.71317 38.12429 -106.40186 15.38523 -2.42254 29.67696 -4.64192 -8.67209 -20.21281 -6.2501 -3.04843 -3.70103 31.7535 7.13288 7.17854 -24.80985 -6.71468 2.87115 3.62334
-0.0096 0.00086 0.01325 -84.66555 -29.30295 -1.84974 43.75098 -1.04363 -10.26522 -16.22403 5.17533 -1.28774 -24.76477 -7.37493 -14.93995 34.85525 97.07819 9.56521 1.70085 -29.16009 9.2754 10.4657 38.00304 -105.71256 15.08182 -2.30068 29.64873 -4.68211 -8.51688 -20.18339 -6.26346 -3.07467 -3.71496 31.74641 7.09893 7.34418 -24.76186 -6.70847 2.848 3.60774
-0.00942 0.00099 0.0136 -84.30783 -29.37028 -1.76568 43.81715 -1.06362 -10.43908 -16.24848 4.92529 -1.28928 -25.08145 -7.42432 -14.37929 36.68229 96.03382 9.33111 1.46333 -29.20465 9.89356 8.84359 38.2141 -102.10716 13.49736 -1.64337 29.5938 -4.74465 -8.75385 -20.15405 -6.26973 -3.08395 -3.71857 31.8276 7.08624 7.33607 -24.74386 -6.70172 2.8122 3.58693
-0.00917 0.00106 0.01398 -83.85949 -29.4467 -1.67872 43.89547 -1.0894 -10.64886 -16.28485 4.66159 -1.29092 -25.37071 -7.36199 -14.11867 38.95419 96.62144 9.51264 1.4945 -29.25294 10.7008 6.77324 38.55453 -97.54339 11.48416 -0.81124 29.52988 -4.81787 -9.12022 -20.12471 -6.27437 -3.08831 -3.71908 31.94087 7.07862 7.27489 -24.73575 -6.69452 2.77019 3.56351
-0.00894 0.00116 0.01434 -83.455 -29.52214 -1.58962 43.97257 -1.11219 -10.84289 -16.31861 4.40194 -1.2925 -25.66997 -7.36496 -13.68989 41.10753 96.37711 9.47382 1.39275 -29.30392 11.39689 4.96946 38.84826 -93.54747 9.7156 -0.08314 29.47505 -4.88837 -9.4111 -20.09593 -6.28047 -3.09602 -3.72162 32.04255 7.06438 7.24132 -24.72244 -6.68759 2.73035 3.54114
-0.00874 0.00126 0.01474 -83.03704 -29.59008 -1.51376 44.03757 -1.13782 -11.03687 -16.34009 4.14896 -1.294 -25.99003 -7.31634 -13.36532 42.90809 96.4008 9.54124 1.31735 -29.33712 12.20258 2.89272 39.09533 -88.98752 7.73461 0.75107 29.4051 -4.95053 -9.76739 -20.06469 -6.28371 -3.09977 -3.72191 32.13821 7.06804 7.19917 -24.71207 -6.67999 2.69268 3.519
